<svg xmlns="http://www.w3.org/2000/svg" viewBox="0 0 841.9 595.3">
  <g fill="#61DAFB">
    <path d="M666.3 296.5c0-32.5-40.2-63.1-101.4-82.4 
             14.1-63.6 8-114.5-20.2-130.4-6.5-3.8-14.1-5.6-22.5-5.6 
             -27.4 0-61 19.6-96.2 53.6-35.2-34-68.8-53.6-96.2-53.6 
             -8.4 0-16 1.8-22.5 5.6-28.1 16-34.3 66.9-20.2 130.4 
             -61.2 19.3-101.4 49.9-101.4 82.4s40.2 63.1 101.4 82.4 
             -14.1 63.6-8 114.5c6.5 3.8 14.1 5.6 22.5 5.6 
             27.4 0 61-19.6 96.2-53.6 35.2 34 68.8 53.6 96.2 53.6 
             8.4 0 16-1.8 22.5-5.6 28.1-16 34.3-66.9 20.2-130.4 
             61.2-19.3 101.4-49.9 101.4-82.4zM420.9 347.3 
             c-14.9 0-27-12.1-27-27s12.1-27 27-27 
             27 12.1 27 27-12.1 27-27 27z"></path>
    <circle cx="420.9" cy="320.3" r="24.9"></circle>
  </g>
</svg>
